<svg id="Layer_16" viewBox="0 0 50 50" xmlns="http://www.w3.org/2000/svg" data-name="Layer 16"><path d="m24.96777344 23.89355469h-.95703125c-1.390625 0-2.52148438 1.13085938-2.52148438 2.52148438v4.10644531c0 1.390625 1.13085938 2.52148438 2.52148438 2.52148438h.95703125c1.390625 0 2.52148438-1.13085938 2.52148438-2.52148438v-4.10644531c0-1.390625-1.13085938-2.52148438-2.52148438-2.52148438zm.52148438 6.62792969c0 .28710938-.234375.52148438-.52148438.52148438h-.95703125c-.28710938 0-.52148438-.234375-.52148438-.52148438v-4.10644531c0-.28710938.234375-.52148438.52148438-.52148438h.95703125c.28710938 0 .52148438.234375.52148438.52148438zm-6.57421875-5.62792969v7.14941406c0 .55273438-.44726562 1-1 1s-1-.44726562-1-1v-2.57421875h-3c-.55273438 0-1-.44726562-1-1v-3.57519531c0-.55273438.44726562-1 1-1s1 .44726562 1 1v2.57519531h2v-2.57519531c0-.55273438.44726562-1 1-1s1 .44726562 1 1zm16.57421875 0v7.14941406c0 .55273438-.44726562 1-1 1s-1-.44726562-1-1v-2.57421875h-3c-.55273438 0-1-.44726562-1-1v-3.57519531c0-.55273438.44726562-1 1-1s1 .44726562 1 1v2.57519531h2v-2.57519531c0-.55273438.44726562-1 1-1s1 .44726562 1 1zm8.30078125-16.78320312h-37.58007813c-2.59667969 0-4.70996094 2.10839844-4.70996094 4.69921875v24.38085938c0 2.59082031 2.11328125 4.69921875 4.70996094 4.69921875h37.58007812c2.59667969 0 4.70996094-2.10839844 4.70996094-4.69921875v-24.38085939c0-2.59082031-2.11328125-4.69921875-4.70996094-4.69921875zm-37.58007813 1.99999999h37.58007812c1.49414062 0 2.70996094 1.2109375 2.70996094 2.69921875v3.296875h-43v-3.296875c0-1.48828125 1.21582031-2.69921875 2.70996094-2.69921875zm37.58007812 29.77929688h-37.58007812c-1.49414062 0-2.70996094-1.2109375-2.70996094-2.69921875v-19.08398438h43v19.08398438c0 1.48828125-1.21582031 2.69921875-2.70996094 2.69921875zm-7.66699219-26.78320312c0-.09667969.078125-.17480469.17480469-.17480469h2c.09667969 0 .17480469.078125.17480469.17480469s-.078125.17480469-.17480469.17480469h-2c-.09667969 0-.17480469-.078125-.17480469-.17480469zm5 0c0-.09667969.078125-.17480469.17480469-.17480469h2c.09667969 0 .17480469.078125.17480469.17480469s-.078125.17480469-.17480469.17480469h-2c-.09667969 0-.17480469-.078125-.17480469-.17480469zm-10 0c0-.09667969.078125-.17480469.17480469-.17480469h2c.09667969 0 .17480469.078125.17480469.17480469s-.078125.17480469-.17480469.17480469h-2c-.09667969 0-.17480469-.078125-.17480469-.17480469z"/></svg>