<svg version="1.1" id="Capa_1" xmlns="http://www.w3.org/2000/svg" xmlns:xlink="http://www.w3.org/1999/xlink" x="0px" y="0px" viewBox="0 0 512 512" style="enable-background:new 0 0 512 512;" xml:space="preserve">
<g>
	
		<line style="fill:none;stroke:#000000;stroke-width:15;stroke-linecap:round;stroke-linejoin:round;stroke-miterlimit:10;" x1="504.5" y1="498.238" x2="7.5" y2="498.238"/>
	
		<line style="fill:none;stroke:#000000;stroke-width:15;stroke-linecap:round;stroke-linejoin:round;stroke-miterlimit:10;" x1="7.5" y1="322.56" x2="504.5" y2="322.56"/>
	<path style="fill:none;stroke:#000000;stroke-width:15;stroke-linecap:round;stroke-linejoin:round;stroke-miterlimit:10;" d="&#10;&#9;&#9;M106.393,125.237l-52.962,47.259v-24.094c0-2.265-1.836-4.1-4.1-4.1h-14.69c-2.265,0-4.1,1.836-4.1,4.1v44.519L8.819,212.303&#10;&#9;&#9;c-2.689,2.4-0.992,6.852,2.612,6.852h22.672V322.56h159.122V219.155h22.672c3.604,0,5.302-4.452,2.613-6.852l-97.574-87.066&#10;&#9;&#9;C116.794,121.541,110.536,121.541,106.393,125.237z"/>
	
		<rect x="61.104" y="222.512" style="fill:none;stroke:#000000;stroke-width:15;stroke-linecap:round;stroke-linejoin:round;stroke-miterlimit:10;" width="37.275" height="33.55"/>
	
		<polyline style="fill:none;stroke:#000000;stroke-width:15;stroke-linecap:round;stroke-linejoin:round;stroke-miterlimit:10;" points="&#10;&#9;&#9;124.952,287.476 124.952,222.512 166.226,222.512 166.226,322.56 124.952,322.56 &#9;"/>
	<g>
		<path style="fill:none;stroke:#000000;stroke-width:15;stroke-linecap:round;stroke-linejoin:round;stroke-miterlimit:10;" d="&#10;&#9;&#9;&#9;M409.88,201.912v120.65h27v-130.72v-28.98v-135.6c0-3.73-1.51-7.11-3.95-9.55c-2.45-2.44-5.82-3.95-9.55-3.95&#10;&#9;&#9;&#9;c-7.45,0-13.5,6.04-13.5,13.5v90.489"/>
	</g>
	
		<polyline style="fill:none;stroke:#000000;stroke-width:15;stroke-linecap:round;stroke-linejoin:round;stroke-miterlimit:10;" points="&#10;&#9;&#9;436.88,40.182 498.18,40.182 498.18,52.932 &#9;"/>
	
		<polyline style="fill:none;stroke:#000000;stroke-width:15;stroke-linecap:round;stroke-linejoin:round;stroke-miterlimit:10;" points="&#10;&#9;&#9;348.59,52.932 348.59,40.182 409.88,40.182 &#9;"/>
	
		<line style="fill:none;stroke:#000000;stroke-width:15;stroke-linecap:round;stroke-linejoin:round;stroke-miterlimit:10;" x1="378.545" y1="52.928" x2="378.545" y2="40.187"/>
	
		<line style="fill:none;stroke:#000000;stroke-width:15;stroke-linecap:round;stroke-linejoin:round;stroke-miterlimit:10;" x1="468.058" y1="52.928" x2="468.058" y2="40.187"/>
	<path style="fill:none;stroke:#000000;stroke-width:15;stroke-linecap:round;stroke-linejoin:round;stroke-miterlimit:10;" d="&#10;&#9;&#9;M193.226,322.56v35.622c0,8.567,6.945,15.512,15.512,15.512H504.5"/>
	<path style="fill:none;stroke:#000000;stroke-width:15;stroke-linecap:round;stroke-linejoin:round;stroke-miterlimit:10;" d="&#10;&#9;&#9;M426.808,201.915h-33.981c-5.565,0-10.076-4.511-10.076-10.076v-28.981c0-5.565,4.511-10.076,10.076-10.076h33.981&#10;&#9;&#9;c5.565,0,10.076,4.511,10.076,10.076v28.981C436.883,197.404,432.372,201.915,426.808,201.915z"/>
	<path style="fill:none;stroke:#000000;stroke-width:15;stroke-linecap:round;stroke-linejoin:round;stroke-miterlimit:10;" d="&#10;&#9;&#9;M409.817,201.915c0,0-27.066,96.545-216.591,96.545"/>
</g>
<g>
</g>
<g>
</g>
<g>
</g>
<g>
</g>
<g>
</g>
<g>
</g>
<g>
</g>
<g>
</g>
<g>
</g>
<g>
</g>
<g>
</g>
<g>
</g>
<g>
</g>
<g>
</g>
<g>
</g>
</svg>