<svg height="512pt" viewBox="0 0 512 512.0006" width="512pt" xmlns="http://www.w3.org/2000/svg"><path d="m435.125 177.988281c-.507812-9.011719-8.042969-16.011719-17.066406-15.855469-2.515625-.027343-4.886719-1.164062-6.484375-3.101562-1.597657-1.941406-2.261719-4.484375-1.8125-6.957031 1.003906-4.207031 4.820312-7.128907 9.140625-7.007813 4.300781.023438 8.433594-1.664062 11.488281-4.6875 3.058594-3.023437 4.785156-7.140625 4.808594-11.441406v-69.972656c-.015625-28.570313-20.230469-53.140625-48.261719-58.65625-4.875-.957032-9.914062.339844-13.722656 3.523437-3.980469 3.273438-6.285156 8.160157-6.28125 13.3125v34.054688c0 14.140625-11.460938 25.601562-25.601563 25.601562h-155.96875c-3.027343-5.261719-8.625-8.515625-14.695312-8.535156h-153.601563c-9.425781 0-17.066406 7.644531-17.066406 17.066406v51.203125c0 9.425782 7.640625 17.066406 17.066406 17.066406h153.601563c6.070312-.019531 11.667969-3.269531 14.695312-8.535156h163.648438c4.207031-.15625 7.984375 2.558594 9.175781 6.597656.566406 2.535157-.042969 5.1875-1.660156 7.222657-1.613282 2.035156-4.0625 3.226562-6.660156 3.246093h-.164063c-4.355469-.015624-8.542969 1.679688-11.664063 4.71875-1.160156 1.179688-2.140624 2.519532-2.917968 3.976563-76.261719 1.265625-155.921875 17.503906-155.921875 51.039063v93.867187c0 9.898437 7.304687 18.398437 19.628906 25.480469-12.964844 7.355468-19.628906 15.957031-19.628906 25.71875v93.867187c0 33.613281 83.714843 51.199219 166.402343 51.199219s166.398438-17.585938 166.398438-51.199219v-93.867187c0-9.761719-6.664062-18.363282-19.625-25.71875 12.320312-7.082032 19.625-15.582032 19.625-25.480469v-93.867187c0-25.359376-45.292969-38.085938-76.875-43.878907zm-110.859375-84.121093v34.132812h-25.597656v-34.132812zm-307.199219 42.667968v-51.203125h153.601563v51.203125zm170.667969-42.667968h93.867187v34.132812h-93.867187zm181.894531 75.945312c4.996094-6.058594 6.929688-14.078125 5.25-21.75-2.871094-11.914062-13.613281-20.246094-25.867187-20.0625h-7.679688v-34.132812c23.554688-.027344 42.640625-19.113282 42.667969-42.667969v-34.046875c19.867188 4.054687 34.136719 21.535156 34.132812 41.8125v69.035156c-12.421874.171875-22.992187 9.109375-25.222656 21.332031-1.257812 7.40625.789063 14.992188 5.605469 20.753907 4.835937 5.785156 12.085937 8.984374 19.617187 8.664062v34.582031h-68.265624l-.425782-31.914062c.238282-.714844.382813-1.460938.425782-2.21875v-.082031c7.621093-.109376 14.824218-3.5 19.761718-9.304688zm-36.828125 18.175781v25.34375c0 9.425781 7.640625 17.070313 17.066407 17.070313h68.265624c9.425782 0 17.066407-7.644532 17.066407-17.070313v-17.917969c43.289062 8.320313 59.734375 20.410157 59.734375 26.496094 0 11.578125-52.710938 34.132813-149.332032 34.132813-96.625 0-149.335937-22.597657-149.335937-34.175781 0-11.210938 46.933594-32.066407 136.535156-33.878907zm12.800781 306.945313c-96.625 0-149.335937-22.554688-149.335937-34.132813v-69.929687c28.65625 17.96875 89.242187 27.261718 149.335937 27.261718 60.089844 0 120.675782-9.292968 149.332032-27.261718v69.929687c0 11.578125-52.710938 34.132813-149.332032 34.132813zm149.332032-128c0 11.578125-52.710938 34.132812-149.332032 34.132812-96.625 0-149.335937-22.554687-149.335937-34.132812 0-2.945313 5.121094-9.617188 23.460937-16.570313 40.878907 11.855469 83.320313 17.445313 125.875 16.570313 42.554688.875 84.996094-4.714844 125.875-16.570313 18.335938 6.953125 23.457032 13.625 23.457032 16.570313zm-149.332032-17.066406c-96.625 0-149.335937-22.554688-149.335937-34.132813v-69.929687c28.65625 17.96875 89.242187 27.261718 149.335937 27.261718 60.089844 0 120.675782-9.292968 149.332032-27.261718v69.929687c0 11.578125-52.710938 34.132813-149.332032 34.132813zm0 0"/><path d="m240.988281 432.640625c-2.839843-.707031-5.578125-1.433594-8.214843-2.203125-2.929688-.847656-6.089844-.066406-8.289063 2.046875s-3.101563 5.238281-2.371094 8.199219c.730469 2.960937 2.984375 5.308594 5.914063 6.15625 2.84375.820312 5.792968 1.609375 8.851562 2.371094.675782.164062 1.367188.246093 2.0625.25 4.316406.003906 7.957032-3.21875 8.480469-7.503907.519531-4.285156-2.238281-8.285156-6.433594-9.316406zm0 0"/><path d="m282.597656 440.003906c-2.824218-.332031-5.605468-.699218-8.34375-1.074218-4.601562-.535157-8.789062 2.703124-9.433594 7.289062-.644531 4.589844 2.488282 8.851562 7.058594 9.605469 2.859375.402343 5.761719.785156 8.722656 1.136719.335938.039062.671876.058593 1.007813.058593 4.542969.03125 8.3125-3.5 8.578125-8.035156.261719-4.535156-3.074219-8.484375-7.589844-8.980469zm0 0"/><path d="m240.988281 287.574219c-2.839843-.707031-5.578125-1.433594-8.214843-2.203125-2.929688-.847656-6.089844-.066406-8.289063 2.046875s-3.101563 5.238281-2.371094 8.199219c.730469 2.960937 2.984375 5.308593 5.914063 6.15625 2.84375.820312 5.792968 1.609374 8.851562 2.371093.675782.164063 1.367188.246094 2.0625.25 4.316406.003907 7.957032-3.21875 8.480469-7.503906.519531-4.285156-2.238281-8.285156-6.433594-9.316406zm0 0"/><path d="m282.597656 294.9375c-2.824218-.332031-5.605468-.699219-8.34375-1.074219-3.058594-.503906-6.148437.6875-8.074218 3.113281-1.925782 2.425782-2.386719 5.703126-1.203126 8.566407 1.183594 2.863281 3.828126 4.859375 6.902344 5.214843 2.859375.402344 5.761719.785157 8.722656 1.136719.335938.039063.671876.058594 1.007813.058594 4.542969.03125 8.3125-3.5 8.578125-8.035156.261719-4.535157-3.074219-8.484375-7.589844-8.980469zm0 0"/><path d="m51.199219 102.402344h-8.53125c-4.714844 0-8.535157 3.820312-8.535157 8.53125 0 4.714844 3.820313 8.535156 8.535157 8.535156h8.53125c4.714843 0 8.535156-3.820312 8.535156-8.535156 0-4.710938-3.820313-8.53125-8.535156-8.53125zm0 0"/><path d="m93.867188 102.402344h-8.535157c-4.710937 0-8.53125 3.820312-8.53125 8.53125 0 4.714844 3.820313 8.535156 8.53125 8.535156h8.535157c4.710937 0 8.53125-3.820312 8.53125-8.535156 0-4.710938-3.820313-8.53125-8.53125-8.53125zm0 0"/><path d="m136.535156 102.402344h-8.535156c-4.710938 0-8.53125 3.820312-8.53125 8.53125 0 4.714844 3.820312 8.535156 8.53125 8.535156h8.535156c4.710938 0 8.53125-3.820312 8.53125-8.535156 0-4.710938-3.820312-8.53125-8.53125-8.53125zm0 0"/></svg>