<?xml version="1.0" encoding="UTF-8" standalone="no"?>
<!-- Created with Inkscape (http://www.inkscape.org/) -->

<svg
   version="1.1"
   id="svg4593"
   xml:space="preserve"
   width="682.66669"
   height="682.66669"
   viewBox="0 0 682.66669 682.66669"
   xmlns="http://www.w3.org/2000/svg"
   xmlns:svg="http://www.w3.org/2000/svg"><defs
     id="defs4597"><clipPath
       clipPathUnits="userSpaceOnUse"
       id="clipPath4607"><path
         d="M 0,512 H 512 V 0 H 0 Z"
         id="path4605" /></clipPath></defs><g
     id="g4599"
     transform="matrix(1.3333333,0,0,-1.3333333,0,682.66667)"><g
       id="g4601"><g
         id="g4603"
         clip-path="url(#clipPath4607)"><path
           d="M 330.847,7.5 H 381.16 V 83.61 H 330.847 Z"
           style="fill:none;stroke:#000000;stroke-width:15;stroke-linecap:round;stroke-linejoin:round;stroke-miterlimit:10;stroke-dasharray:none;stroke-opacity:1"
           id="path4609" /><g
           id="g4611"
           transform="translate(309.2476,393.3252)"><path
             d="m 0,0 h 93.513 v 28.998 c 0,11.962 -9.78,21.742 -21.742,21.742 H 21.741 C 9.779,50.74 0,40.96 0,28.998 Z"
             style="fill:none;stroke:#000000;stroke-width:15;stroke-linecap:round;stroke-linejoin:round;stroke-miterlimit:10;stroke-dasharray:none;stroke-opacity:1"
             id="path4613" /></g><g
           id="g4615"
           transform="translate(378.5244,305.5928)"><path
             d="m 0,0 h -45.069 m 0,39.345 H 0"
             style="fill:none;stroke:#000000;stroke-width:15;stroke-linecap:round;stroke-linejoin:round;stroke-miterlimit:10;stroke-dasharray:none;stroke-opacity:1"
             id="path4617" /></g><g
           id="g4619"
           transform="translate(407.749,223.3877)"><path
             d="m 0,0 v -27.071 c 0,-7.342 -4.875,-13.38 -10.828,-13.38 h -81.834 c -5.953,0 -10.828,6.038 -10.828,13.38 V 0"
             style="fill:none;stroke:#000000;stroke-width:15;stroke-linecap:round;stroke-linejoin:round;stroke-miterlimit:10;stroke-dasharray:none;stroke-opacity:1"
             id="path4621" /></g><g
           id="g4623"
           transform="translate(316.646,182.9365)"><path
             d="m 0,0 v -93.94 c 0,-2.949 2.268,-5.386 5.017,-5.386 h 68.682 c 2.749,0 4.989,2.437 4.989,5.386 V 0"
             style="fill:none;stroke:#000000;stroke-width:15;stroke-linecap:round;stroke-linejoin:round;stroke-miterlimit:10;stroke-dasharray:none;stroke-opacity:1"
             id="path4625" /></g><g
           id="g4627"
           transform="translate(316.646,149.8281)"><path
             d="M 0,0 H 20.636"
             style="fill:none;stroke:#000000;stroke-width:15;stroke-linecap:round;stroke-linejoin:round;stroke-miterlimit:10;stroke-dasharray:none;stroke-opacity:1"
             id="path4629" /></g><g
           id="g4631"
           transform="translate(316.646,116.7197)"><path
             d="M 0,0 H 20.636"
             style="fill:none;stroke:#000000;stroke-width:15;stroke-linecap:round;stroke-linejoin:round;stroke-miterlimit:10;stroke-dasharray:none;stroke-opacity:1"
             id="path4633" /></g><g
           id="g4635"
           transform="translate(395.3335,149.8281)"><path
             d="M 0,0 H -20.636"
             style="fill:none;stroke:#000000;stroke-width:15;stroke-linecap:round;stroke-linejoin:round;stroke-miterlimit:10;stroke-dasharray:none;stroke-opacity:1"
             id="path4637" /></g><g
           id="g4639"
           transform="translate(395.3335,116.7197)"><path
             d="M 0,0 H -20.636"
             style="fill:none;stroke:#000000;stroke-width:15;stroke-linecap:round;stroke-linejoin:round;stroke-miterlimit:10;stroke-dasharray:none;stroke-opacity:1"
             id="path4641" /></g><g
           id="g4643"
           transform="translate(355.9897,444.0654)"><path
             d="M 0,0 V 60.435"
             style="fill:none;stroke:#000000;stroke-width:15;stroke-linecap:round;stroke-linejoin:round;stroke-miterlimit:10;stroke-dasharray:none;stroke-opacity:1"
             id="path4645" /></g><g
           id="g4647"
           transform="translate(341.7319,223.3877)"><path
             d="m 0,0 h -46.714 c -2.608,0 -4.762,2.126 -4.762,4.733 v 146.241 c 0,10.431 8.56,18.963 18.992,18.963 h 93.512 c 10.431,0 18.964,-8.532 18.964,-18.963 V 4.733 C 79.992,2.126 77.866,0 75.258,0 h -41.98"
             style="fill:none;stroke:#000000;stroke-width:15;stroke-linecap:round;stroke-linejoin:round;stroke-miterlimit:10;stroke-dasharray:none;stroke-opacity:1"
             id="path4649" /></g><path
           d="m 130.839,7.5 h 50.313 v 76.11 h -50.313 z"
           style="fill:none;stroke:#000000;stroke-width:15;stroke-linecap:round;stroke-linejoin:round;stroke-miterlimit:10;stroke-dasharray:none;stroke-opacity:1"
           id="path4651" /><g
           id="g4653"
           transform="translate(109.2397,393.3252)"><path
             d="m 0,0 h 93.513 v 28.998 c 0,11.962 -9.78,21.742 -21.742,21.742 H 21.741 C 9.779,50.74 0,40.96 0,28.998 Z"
             style="fill:none;stroke:#000000;stroke-width:15;stroke-linecap:round;stroke-linejoin:round;stroke-miterlimit:10;stroke-dasharray:none;stroke-opacity:1"
             id="path4655" /></g><g
           id="g4657"
           transform="translate(221.7441,305.5928)"><path
             d="m 0,0 h -131.468 m 0,39.345 H 0"
             style="fill:none;stroke:#000000;stroke-width:15;stroke-linecap:round;stroke-linejoin:round;stroke-miterlimit:10;stroke-dasharray:none;stroke-opacity:1"
             id="path4659" /></g><g
           id="g4661"
           transform="translate(207.7412,223.3877)"><path
             d="m 0,0 v -27.071 c 0,-7.342 -4.875,-13.38 -10.828,-13.38 h -81.834 c -5.953,0 -10.828,6.038 -10.828,13.38 V 0"
             style="fill:none;stroke:#000000;stroke-width:15;stroke-linecap:round;stroke-linejoin:round;stroke-miterlimit:10;stroke-dasharray:none;stroke-opacity:1"
             id="path4663" /></g><g
           id="g4665"
           transform="translate(116.6665,182.9365)"><path
             d="m 0,0 v -93.94 c 0,-2.949 2.239,-5.386 4.989,-5.386 H 73.67 c 2.75,0 5.018,2.437 5.018,5.386 V 0"
             style="fill:none;stroke:#000000;stroke-width:15;stroke-linecap:round;stroke-linejoin:round;stroke-miterlimit:10;stroke-dasharray:none;stroke-opacity:1"
             id="path4667" /></g><g
           id="g4669"
           transform="translate(116.6665,149.8281)"><path
             d="M 0,0 H 20.636"
             style="fill:none;stroke:#000000;stroke-width:15;stroke-linecap:round;stroke-linejoin:round;stroke-miterlimit:10;stroke-dasharray:none;stroke-opacity:1"
             id="path4671" /></g><g
           id="g4673"
           transform="translate(116.6665,116.7197)"><path
             d="M 0,0 H 20.636"
             style="fill:none;stroke:#000000;stroke-width:15;stroke-linecap:round;stroke-linejoin:round;stroke-miterlimit:10;stroke-dasharray:none;stroke-opacity:1"
             id="path4675" /></g><g
           id="g4677"
           transform="translate(195.354,149.8281)"><path
             d="M 0,0 H -20.636"
             style="fill:none;stroke:#000000;stroke-width:15;stroke-linecap:round;stroke-linejoin:round;stroke-miterlimit:10;stroke-dasharray:none;stroke-opacity:1"
             id="path4679" /></g><g
           id="g4681"
           transform="translate(195.354,116.7197)"><path
             d="M 0,0 H -20.636"
             style="fill:none;stroke:#000000;stroke-width:15;stroke-linecap:round;stroke-linejoin:round;stroke-miterlimit:10;stroke-dasharray:none;stroke-opacity:1"
             id="path4683" /></g><g
           id="g4685"
           transform="translate(139.5132,223.3877)"><path
             d="m 0,0 h -44.503 c -2.608,0 -4.734,2.126 -4.734,4.733 v 146.241 c 0,10.431 8.532,18.963 18.964,18.963 h 93.512 c 10.431,0 18.992,-8.532 18.992,-18.963 V 4.733 C 82.231,2.126 80.077,0 77.469,0 H 32.116"
             style="fill:none;stroke:#000000;stroke-width:15;stroke-linecap:round;stroke-linejoin:round;stroke-miterlimit:10;stroke-dasharray:none;stroke-opacity:1"
             id="path4687" /></g></g></g></g></svg>
