<?xml version="1.0" encoding="UTF-8"?>
<svg xmlns="http://www.w3.org/2000/svg" id="icons" viewBox="0 0 60 60" width="512" height="512"><path d="M8,10A3,3,0,1,0,5,7,3,3,0,0,0,8,10ZM8,6A1,1,0,1,1,7,7,1,1,0,0,1,8,6Z"/><path d="M16,10a3,3,0,1,0-3-3A3,3,0,0,0,16,10Zm0-4a1,1,0,1,1-1,1A1,1,0,0,1,16,6Z"/><path d="M8,22a3,3,0,1,0-3-3A3,3,0,0,0,8,22Zm0-4a1,1,0,1,1-1,1A1,1,0,0,1,8,18Z"/><path d="M16,22a3,3,0,1,0-3-3A3,3,0,0,0,16,22Zm0-4a1,1,0,1,1-1,1A1,1,0,0,1,16,18Z"/><path d="M8,28a3,3,0,1,0,3,3A3,3,0,0,0,8,28Zm0,4a1,1,0,1,1,1-1A1,1,0,0,1,8,32Z"/><path d="M16,28a3,3,0,1,0,3,3A3,3,0,0,0,16,28Zm0,4a1,1,0,1,1,1-1A1,1,0,0,1,16,32Z"/><path d="M34,48a4,4,0,1,0,4,4A4,4,0,0,0,34,48Zm0,6a2,2,0,1,1,2-2A2,2,0,0,1,34,54Z"/><path d="M42.038,25.445A3.985,3.985,0,0,0,44,22V16a3.974,3.974,0,0,0-1.382-3A3.974,3.974,0,0,0,44,10V4a4,4,0,0,0-4-4H4A4,4,0,0,0,0,4v6a3.974,3.974,0,0,0,1.382,3A3.974,3.974,0,0,0,0,16v6a3.974,3.974,0,0,0,1.382,3A3.974,3.974,0,0,0,0,28v6a4,4,0,0,0,4,4H18.309L8.584,53.954a3.9,3.9,0,0,0-.072,3.992A3.992,3.992,0,0,0,12.04,60H55.96a3.992,3.992,0,0,0,3.528-2.054,3.9,3.9,0,0,0-.072-3.992ZM2,4A2,2,0,0,1,4,2H40a2,2,0,0,1,2,2v6a2,2,0,0,1-2,2H4a2,2,0,0,1-2-2ZM2,16a2,2,0,0,1,2-2H40a2,2,0,0,1,2,2v6a1.99,1.99,0,0,1-1,1.736L37.457,17.93a4.061,4.061,0,0,0-6.914,0L30.5,18H25a1,1,0,0,0,0,2h4.281l-2.438,4H4a2,2,0,0,1-2-2ZM4,36a2,2,0,0,1-2-2V28a2,2,0,0,1,2-2H25.624l-6.1,10ZM57.744,56.968A2.016,2.016,0,0,1,55.96,58H12.04a2.016,2.016,0,0,1-1.784-1.032A1.931,1.931,0,0,1,10.291,55L32.25,18.971a2.062,2.062,0,0,1,3.5,0L57.709,55A1.931,1.931,0,0,1,57.744,56.968Z"/><path d="M34,46a3.169,3.169,0,0,0,3.107-2.943l.73-13.011A3.844,3.844,0,0,0,34,26a3.9,3.9,0,0,0-3.836,4.05l.728,13A3.107,3.107,0,0,0,34,46ZM32.68,28.587A1.834,1.834,0,0,1,34,28a1.868,1.868,0,0,1,1.839,1.94S35.113,42.9,35.11,42.95A1.131,1.131,0,0,1,34,44a1.11,1.11,0,0,1-1.111-1.055s-.727-12.992-.728-13A1.836,1.836,0,0,1,32.68,28.587Z"/><path d="M25,8H38a1,1,0,0,0,0-2H25a1,1,0,0,0,0,2Z"/></svg>
