<?xml version="1.0" encoding="UTF-8"?>
<svg xmlns="http://www.w3.org/2000/svg" xmlns:xlink="http://www.w3.org/1999/xlink" version="1.1" id="Capa_1" x="0px" y="0px" viewBox="0 0 512 512" style="enable-background:new 0 0 512 512;" xml:space="preserve" width="512" height="512">
<g>
	<g>
		<g>
			<g>
				<path style="fill:none;stroke:#000000;stroke-width:15;stroke-linecap:round;stroke-linejoin:round;stroke-miterlimit:10;" d="&#10;&#9;&#9;&#9;&#9;&#9;M96.701,504.5H31.114c-6.871,0-11.47-7.069-8.685-13.351l35.709-80.539c12.17-33.56,48.24-55.56,83.65-51.03l30.01,3.43"/>
				<path style="fill:none;stroke:#000000;stroke-width:15;stroke-linecap:round;stroke-linejoin:round;stroke-miterlimit:10;" d="&#10;&#9;&#9;&#9;&#9;&#9;M277.32,463.07l-88.921,15.05l-5,17.065c-1.618,5.521-6.682,9.315-12.436,9.315H96.701"/>
				<path style="fill:none;stroke:#000000;stroke-width:15;stroke-linecap:round;stroke-linejoin:round;stroke-miterlimit:10;" d="&#10;&#9;&#9;&#9;&#9;&#9;M260.538,373.17l90.76,10.38l73.64-71.68c3.86-3.76,9-5.81,14.28-5.81c1.6,0,3.22,0.19,4.82,0.58&#10;&#9;&#9;&#9;&#9;&#9;c13.42,3.26,19.83,18.6,12.72,30.43l-46.09,76.73c-11.34,18.86-30.35,31.84-52.05,35.51l-45.774,7.747"/>
				<path style="fill:none;stroke:#000000;stroke-width:15;stroke-linecap:round;stroke-linejoin:round;stroke-miterlimit:10;" d="&#10;&#9;&#9;&#9;&#9;&#9;M171.795,363.012l95.649-53.273c6.457-3.596,14.289-3.703,20.841-0.284h0c13.743,7.17,15.931,25.937,4.206,36.076&#10;&#9;&#9;&#9;&#9;&#9;l-49.301,42.635"/>
			</g>
		</g>
	</g>
	<path style="fill:none;stroke:#000000;stroke-width:15;stroke-linecap:round;stroke-linejoin:round;stroke-miterlimit:10;" d="&#10;&#9;&#9;M80.526,222.595c-2.894-12.651-4.422-25.822-4.422-39.35C76.104,86.184,154.787,7.5,251.848,7.5&#10;&#9;&#9;c50.524,0,96.069,21.32,128.128,55.455"/>
	<path style="fill:none;stroke:#000000;stroke-width:15;stroke-linecap:round;stroke-linejoin:round;stroke-miterlimit:10;" d="&#10;&#9;&#9;M158.39,332.107c-17.088-10.75-32.194-24.362-44.647-40.161"/>
	<path style="fill:none;stroke:#000000;stroke-width:15;stroke-linecap:round;stroke-linejoin:round;stroke-miterlimit:10;" d="&#10;&#9;&#9;M427.098,169.952c0.328,4.388,0.495,8.821,0.495,13.293c0,87.683-64.213,160.368-148.179,173.596"/>
	<path style="fill:none;stroke:#000000;stroke-width:15;stroke-linecap:round;stroke-linejoin:round;stroke-miterlimit:10;" d="&#10;&#9;&#9;M302.207,155.101h-22.214v-22.214c0-15.544-12.601-28.144-28.144-28.144s-28.144,12.601-28.144,28.144v22.214H201.49&#10;&#9;&#9;c-15.544,0-28.144,12.601-28.144,28.144v0c0,15.544,12.601,28.144,28.144,28.144h22.214v22.214&#10;&#9;&#9;c0,15.544,12.601,28.144,28.144,28.144s28.144-12.601,28.144-28.144v-22.214h22.214c15.544,0,28.144-12.601,28.144-28.144v0&#10;&#9;&#9;C330.351,167.701,317.751,155.101,302.207,155.101z"/>
	
		<circle style="fill:none;stroke:#000000;stroke-width:15;stroke-linecap:round;stroke-linejoin:round;stroke-miterlimit:10;" cx="399.537" cy="97.641" r="39.817"/>
	
		<circle style="fill:none;stroke:#000000;stroke-width:15;stroke-linecap:round;stroke-linejoin:round;stroke-miterlimit:10;" cx="337.674" cy="261.748" r="22.442"/>
	
		<circle style="fill:none;stroke:#000000;stroke-width:15;stroke-linecap:round;stroke-linejoin:round;stroke-miterlimit:10;" cx="87.802" cy="261.748" r="39.817"/>
	<g>
		<g>
			
				<line style="fill:none;stroke:#000000;stroke-width:15;stroke-linecap:round;stroke-linejoin:round;stroke-miterlimit:10;" x1="48.886" y1="51.773" x2="48.886" y2="85.051"/>
			
				<line style="fill:none;stroke:#000000;stroke-width:15;stroke-linecap:round;stroke-linejoin:round;stroke-miterlimit:10;" x1="65.525" y1="68.412" x2="32.247" y2="68.412"/>
		</g>
		
			<line style="fill:none;stroke:#000000;stroke-width:15;stroke-linecap:round;stroke-linejoin:round;stroke-miterlimit:10;" x1="78.222" y1="30.598" x2="78.222" y2="30.598"/>
	</g>
	<g>
		
			<line style="fill:none;stroke:#000000;stroke-width:15;stroke-linecap:round;stroke-linejoin:round;stroke-miterlimit:10;" x1="461.061" y1="13.959" x2="461.061" y2="47.237"/>
		
			<line style="fill:none;stroke:#000000;stroke-width:15;stroke-linecap:round;stroke-linejoin:round;stroke-miterlimit:10;" x1="477.7" y1="30.598" x2="444.422" y2="30.598"/>
	</g>
	<g>
		<g>
			
				<line style="fill:none;stroke:#000000;stroke-width:15;stroke-linecap:round;stroke-linejoin:round;stroke-miterlimit:10;" x1="461.061" y1="243.106" x2="461.061" y2="276.384"/>
			
				<line style="fill:none;stroke:#000000;stroke-width:15;stroke-linecap:round;stroke-linejoin:round;stroke-miterlimit:10;" x1="477.7" y1="259.745" x2="444.422" y2="259.745"/>
		</g>
		
			<line style="fill:none;stroke:#000000;stroke-width:15;stroke-linecap:round;stroke-linejoin:round;stroke-miterlimit:10;" x1="490.397" y1="221.931" x2="490.397" y2="221.931"/>
	</g>
	
		<line style="fill:none;stroke:#000000;stroke-width:15;stroke-linecap:round;stroke-linejoin:round;stroke-miterlimit:10;" x1="173.347" y1="91.376" x2="173.347" y2="91.376"/>
	
		<line style="fill:none;stroke:#000000;stroke-width:15;stroke-linecap:round;stroke-linejoin:round;stroke-miterlimit:10;" x1="72.798" y1="256" x2="72.798" y2="256"/>
	
		<line style="fill:none;stroke:#000000;stroke-width:15;stroke-linecap:round;stroke-linejoin:round;stroke-miterlimit:10;" x1="394.304" y1="110.522" x2="394.304" y2="110.522"/>
	
		<line style="fill:none;stroke:#000000;stroke-width:15;stroke-linecap:round;stroke-linejoin:round;stroke-miterlimit:10;" x1="175.438" y1="298.98" x2="175.438" y2="298.98"/>
	
		<line style="fill:none;stroke:#000000;stroke-width:15;stroke-linecap:round;stroke-linejoin:round;stroke-miterlimit:10;" x1="195.553" y1="270.031" x2="195.553" y2="270.031"/>
	
		<line style="fill:none;stroke:#000000;stroke-width:15;stroke-linecap:round;stroke-linejoin:round;stroke-miterlimit:10;" x1="32.247" y1="167.679" x2="32.247" y2="167.679"/>
</g>















</svg>
