<?xml version="1.0" encoding="UTF-8" standalone="no"?>
<!-- Created with Inkscape (http://www.inkscape.org/) -->

<svg
   version="1.1"
   id="svg3219"
   xml:space="preserve"
   width="682.66669"
   height="682.66669"
   viewBox="0 0 682.66669 682.66669"
   xmlns="http://www.w3.org/2000/svg"
   xmlns:svg="http://www.w3.org/2000/svg"><defs
     id="defs3223"><clipPath
       clipPathUnits="userSpaceOnUse"
       id="clipPath3233"><path
         d="M 0,512 H 512 V 0 H 0 Z"
         id="path3231" /></clipPath></defs><g
     id="g3225"
     transform="matrix(1.3333333,0,0,-1.3333333,0,682.66667)"><g
       id="g3227"><g
         id="g3229"
         clip-path="url(#clipPath3233)"><g
           id="g3235"
           transform="translate(189.5693,453.5)"><path
             d="m 0,0 h -158.308 c -8.284,0 -15,6.716 -15,15 v 21 c 0,8.284 6.716,15 15,15 h 390 c 8.285,0 15,-6.716 15,-15 V 15 c 0,-8.284 -6.715,-15 -15,-15 H 35"
             style="fill:none;stroke:#000000;stroke-width:15;stroke-linecap:round;stroke-linejoin:round;stroke-miterlimit:10;stroke-dasharray:none;stroke-opacity:1"
             id="path3237" /></g><g
           id="g3239"
           transform="translate(421.2617,7.5)"><path
             d="m 0,0 h -390 c -8.284,0 -15,6.716 -15,15 v 21 c 0,8.284 6.716,15 15,15 H 0 C 8.284,51 15,44.284 15,36 V 15 C 15,6.716 8.284,0 0,0 Z"
             style="fill:none;stroke:#000000;stroke-width:15;stroke-linecap:round;stroke-linejoin:round;stroke-miterlimit:10;stroke-dasharray:none;stroke-opacity:1"
             id="path3241" /></g><g
           id="g3243"
           transform="translate(399.7617,453.5)"><path
             d="m 0,0 v -20 c 0,-11.046 -8.954,-20 -20,-20 h -307 c -11.046,0 -20,8.954 -20,20 V 0"
             style="fill:none;stroke:#000000;stroke-width:15;stroke-linecap:round;stroke-linejoin:round;stroke-miterlimit:10;stroke-dasharray:none;stroke-opacity:1"
             id="path3245" /></g><g
           id="g3247"
           transform="translate(52.7617,58.5)"><path
             d="m 0,0 v 20 c 0,11.046 8.954,20 20,20 h 307 c 11.046,0 20,-8.954 20,-20 V 0"
             style="fill:none;stroke:#000000;stroke-width:15;stroke-linecap:round;stroke-linejoin:round;stroke-miterlimit:10;stroke-dasharray:none;stroke-opacity:1"
             id="path3249" /></g><g
           id="g3251"
           transform="translate(372.5156,328.355)"><path
             d="m 0,0 -301.794,47.8 c -10.289,1.629 -17.31,11.291 -15.68,21.58 1.63,10.29 11.292,17.309 21.581,15.68 L 5.901,37.261 C 16.19,35.631 23.21,25.969 21.581,15.68 19.951,5.391 10.289,-1.629 0,0 Z"
             style="fill:none;stroke:#000000;stroke-width:15;stroke-linecap:round;stroke-linejoin:round;stroke-miterlimit:10;stroke-dasharray:none;stroke-opacity:1"
             id="path3253" /></g><g
           id="g3255"
           transform="translate(378.7314,327.3491)"><path
             d="M 0,0 C 10.289,-1.629 17.309,-11.292 15.68,-21.581 14.05,-31.87 4.388,-38.89 -5.901,-37.26 l -272.81,43.209 -28.984,4.591 c -10.289,1.629 -17.31,11.291 -15.68,21.58 1.63,10.289 11.292,17.309 21.581,15.68"
             style="fill:none;stroke:#000000;stroke-width:15;stroke-linecap:round;stroke-linejoin:round;stroke-miterlimit:10;stroke-dasharray:none;stroke-opacity:1"
             id="path3257" /></g><g
           id="g3259"
           transform="translate(277.4404,266.981)"><path
             d="m 0,0 -206.09,32.641 c -10.289,1.63 -17.309,11.292 -15.68,21.581 1.63,10.289 11.292,17.309 21.582,15.68"
             style="fill:none;stroke:#000000;stroke-width:15;stroke-linecap:round;stroke-linejoin:round;stroke-miterlimit:10;stroke-dasharray:none;stroke-opacity:1"
             id="path3261" /></g><g
           id="g3263"
           transform="translate(379.0459,289.083)"><path
             d="M 0,0 C 10.289,-1.629 17.309,-11.292 15.68,-21.581 14.05,-31.87 4.388,-38.89 -5.901,-37.26 l -61.123,9.68"
             style="fill:none;stroke:#000000;stroke-width:15;stroke-linecap:round;stroke-linejoin:round;stroke-miterlimit:10;stroke-dasharray:none;stroke-opacity:1"
             id="path3265" /></g><g
           id="g3267"
           transform="translate(379.3604,250.8169)"><path
             d="M 0,0 C 10.289,-1.629 17.31,-11.292 15.68,-21.581 14.05,-31.87 4.388,-38.89 -5.901,-37.26 l -301.794,47.799 c -10.289,1.63 -17.31,11.292 -15.68,21.581 1.63,10.289 11.292,17.309 21.581,15.68"
             style="fill:none;stroke:#000000;stroke-width:15;stroke-linecap:round;stroke-linejoin:round;stroke-miterlimit:10;stroke-dasharray:none;stroke-opacity:1"
             id="path3269" /></g><g
           id="g3271"
           transform="translate(379.6748,212.5508)"><path
             d="M 0,0 C 10.289,-1.629 17.31,-11.292 15.68,-21.581 14.05,-31.87 4.388,-38.89 -5.901,-37.26 l -301.794,47.799 c -10.289,1.63 -17.31,11.292 -15.68,21.581 1.63,10.289 11.292,17.309 21.581,15.68"
             style="fill:none;stroke:#000000;stroke-width:15;stroke-linecap:round;stroke-linejoin:round;stroke-miterlimit:10;stroke-dasharray:none;stroke-opacity:1"
             id="path3273" /></g><g
           id="g3275"
           transform="translate(113.0391,140.1538)"><path
             d="m 0,0 -40.431,6.404 c -10.289,1.63 -17.309,11.292 -15.679,21.581 1.63,10.289 11.292,17.309 21.581,15.679"
             style="fill:none;stroke:#000000;stroke-width:15;stroke-linecap:round;stroke-linejoin:round;stroke-miterlimit:10;stroke-dasharray:none;stroke-opacity:1"
             id="path3277" /></g><g
           id="g3279"
           transform="translate(380.3037,136.0186)"><path
             d="M 0,0 C 10.289,-1.63 17.31,-11.292 15.68,-21.581 14.05,-31.87 4.388,-38.89 -5.901,-37.26 l -226.794,35.92"
             style="fill:none;stroke:#000000;stroke-width:15;stroke-linecap:round;stroke-linejoin:round;stroke-miterlimit:10;stroke-dasharray:none;stroke-opacity:1"
             id="path3281" /></g><g
           id="g3283"
           transform="translate(379.7617,413.5)"><path
             d="M 0,0 V -47.884"
             style="fill:none;stroke:#000000;stroke-width:15;stroke-linecap:round;stroke-linejoin:round;stroke-miterlimit:10;stroke-dasharray:none;stroke-opacity:1"
             id="path3285" /></g><g
           id="g3287"
           transform="translate(72.6084,146.5576)"><path
             d="M 0,0 V -48.058"
             style="fill:none;stroke:#000000;stroke-width:15;stroke-linecap:round;stroke-linejoin:round;stroke-miterlimit:10;stroke-dasharray:none;stroke-opacity:1"
             id="path3289" /></g><g
           id="g3291"
           transform="translate(452.4941,296.0352)"><path
             d="m 0,0 v -79.157 c 0,-13.623 -5.941,-26.511 -16.301,-35.359 -10.359,-8.847 -24.019,-12.699 -37.472,-10.568 0,0 -17.493,3.137 -18.732,3.334"
             style="fill:none;stroke:#000000;stroke-width:15;stroke-linecap:round;stroke-linejoin:round;stroke-miterlimit:10;stroke-dasharray:none;stroke-opacity:1"
             id="path3293" /></g><g
           id="g3295"
           transform="translate(489.4941,269.1479)"><path
             d="M 0,0 V 26.887"
             style="fill:none;stroke:#000000;stroke-width:15;stroke-linecap:round;stroke-linejoin:round;stroke-miterlimit:10;stroke-dasharray:none;stroke-opacity:1"
             id="path3297" /></g><g
           id="g3299"
           transform="translate(78.1953,222.084)"><path
             d="m 0,0 c -10.289,1.63 -19.951,-5.39 -21.581,-15.679 -1.63,-10.289 5.391,-19.951 15.68,-21.581 l 301.794,-47.8 c 1.238,-0.196 27.59,-3.65 31.947,-3.65 19.732,0 38.95,6.996 54.188,20.011 18.602,15.887 29.271,39.03 29.271,63.493 v 17.15"
             style="fill:none;stroke:#000000;stroke-width:15;stroke-linecap:round;stroke-linejoin:round;stroke-miterlimit:10;stroke-dasharray:none;stroke-opacity:1"
             id="path3301" /></g><g
           id="g3303"
           transform="translate(374.0879,137.0244)"><path
             d="m 0,0 c 7.401,-0.975 27.591,-3.65 31.947,-3.65 19.733,0 38.95,6.996 54.189,20.01"
             style="fill:none;stroke:#000000;stroke-width:15;stroke-linecap:round;stroke-linejoin:round;stroke-miterlimit:10;stroke-dasharray:none;stroke-opacity:1"
             id="path3305" /></g><g
           id="g3307"
           transform="translate(483.4941,326.5)"><path
             d="m 0,0 h -25 c -3.313,0 -6,-2.687 -6,-6 V -30.465 H 6 V -6 C 6,-2.687 3.313,0 0,0 Z"
             style="fill:none;stroke:#000000;stroke-width:15;stroke-linecap:round;stroke-linejoin:round;stroke-miterlimit:10;stroke-dasharray:none;stroke-opacity:1"
             id="path3309" /></g><g
           id="g3311"
           transform="translate(495.7383,394.3584)"><path
             d="M 0,0 C -21.127,-7.042 -24.744,-19.134 -24.744,-37.434 V -67.858"
             style="fill:none;stroke:#000000;stroke-width:15;stroke-linecap:round;stroke-linejoin:round;stroke-miterlimit:10;stroke-dasharray:none;stroke-opacity:1"
             id="path3313" /></g><g
           id="g3315"
           transform="translate(444.4307,382.0752)"><path
             d="M 0,0 C 12.86,-0.537 27.091,-10.664 26.563,-25.151"
             style="fill:none;stroke:#000000;stroke-width:15;stroke-linecap:round;stroke-linejoin:round;stroke-miterlimit:10;stroke-dasharray:none;stroke-opacity:1"
             id="path3317" /></g></g></g></g></svg>
