<svg version="1.1" id="Capa_1" xmlns="http://www.w3.org/2000/svg" xmlns:xlink="http://www.w3.org/1999/xlink" x="0px" y="0px" viewBox="0 0 512 512" style="enable-background:new 0 0 512 512;" xml:space="preserve">
<g>
	<path style="fill:none;stroke:#000000;stroke-width:15;stroke-linecap:round;stroke-linejoin:round;stroke-miterlimit:10;" d="&#10;&#9;&#9;M51.204,115.208C23.638,155.229,7.5,203.73,7.5,256c0,137.243,111.257,248.5,248.5,248.5S504.5,393.243,504.5,256&#10;&#9;&#9;S393.243,7.5,256,7.5c-72.342,0-137.464,30.912-182.878,80.248"/>
	
		<circle style="fill:none;stroke:#000000;stroke-width:15;stroke-linecap:round;stroke-linejoin:round;stroke-miterlimit:10;" cx="256" cy="256" r="185.638"/>
	
		<circle style="fill:none;stroke:#000000;stroke-width:15;stroke-linecap:round;stroke-linejoin:round;stroke-miterlimit:10;" cx="256" cy="256" r="34.88"/>
	<g id="_x3C_Radial_Repeat_x3E__7_">
		
			<circle style="fill:none;stroke:#000000;stroke-width:15;stroke-linecap:round;stroke-linejoin:round;stroke-miterlimit:10;" cx="256" cy="379.759" r="61.879"/>
		
			<circle style="fill:none;stroke:#000000;stroke-width:15;stroke-linecap:round;stroke-linejoin:round;stroke-miterlimit:10;" cx="256" cy="379.759" r="34.88"/>
	</g>
	<g id="_x3C_Radial_Repeat_x3E__6_">
		
			<circle style="fill:none;stroke:#000000;stroke-width:15;stroke-linecap:round;stroke-linejoin:round;stroke-miterlimit:10;" cx="148.822" cy="317.879" r="61.879"/>
		<path style="fill:none;stroke:#000000;stroke-width:15;stroke-linecap:round;stroke-linejoin:round;stroke-miterlimit:10;" d="&#10;&#9;&#9;&#9;M148.88,352.769c-46.029-1.195-46.096-68.503-0.115-69.779C194.614,283.804,194.716,351.837,148.88,352.769z"/>
	</g>
	<g id="_x3C_Radial_Repeat_x3E__5_">
		
			<circle style="fill:none;stroke:#000000;stroke-width:15;stroke-linecap:round;stroke-linejoin:round;stroke-miterlimit:10;" cx="148.822" cy="194.121" r="61.879"/>
		<path style="fill:none;stroke:#000000;stroke-width:15;stroke-linecap:round;stroke-linejoin:round;stroke-miterlimit:10;" d="&#10;&#9;&#9;&#9;M148.764,229.011c-45.995-1.286-45.898-68.593,0.117-69.779C194.719,160.169,194.612,228.201,148.764,229.011z"/>
	</g>
	<g id="_x3C_Radial_Repeat_x3E__4_">
		
			<circle style="fill:none;stroke:#000000;stroke-width:15;stroke-linecap:round;stroke-linejoin:round;stroke-miterlimit:10;" cx="256" cy="132.241" r="61.879"/>
		
			<circle style="fill:none;stroke:#000000;stroke-width:15;stroke-linecap:round;stroke-linejoin:round;stroke-miterlimit:10;" cx="256" cy="132.241" r="34.88"/>
	</g>
	<g id="_x3C_Radial_Repeat_x3E__3_">
		
			<circle style="fill:none;stroke:#000000;stroke-width:15;stroke-linecap:round;stroke-linejoin:round;stroke-miterlimit:10;" cx="363.179" cy="194.121" r="61.879"/>
		<path style="fill:none;stroke:#000000;stroke-width:15;stroke-linecap:round;stroke-linejoin:round;stroke-miterlimit:10;" d="&#10;&#9;&#9;&#9;M363.237,229.01c-46.029-1.195-46.096-68.503-0.115-69.779C408.971,160.046,409.073,228.078,363.237,229.01z"/>
	</g>
	<g id="_x3C_Radial_Repeat_x3E__2_">
		
			<circle style="fill:none;stroke:#000000;stroke-width:15;stroke-linecap:round;stroke-linejoin:round;stroke-miterlimit:10;" cx="363.179" cy="317.879" r="61.879"/>
		<path style="fill:none;stroke:#000000;stroke-width:15;stroke-linecap:round;stroke-linejoin:round;stroke-miterlimit:10;" d="&#10;&#9;&#9;&#9;M333.566,299.425c5.408-9.245,15.301-16.065,29.673-16.436c45.837,0.939,45.731,68.97-0.117,69.779&#10;&#9;&#9;&#9;c-15.541-0.434-25.82-8.406-30.843-18.818"/>
	</g>
	
		<line style="fill:none;stroke:#000000;stroke-width:15;stroke-linecap:round;stroke-linejoin:round;stroke-miterlimit:10;" x1="363.179" y1="317.879" x2="363.179" y2="317.879"/>
	
		<line style="fill:none;stroke:#000000;stroke-width:15;stroke-linecap:round;stroke-linejoin:round;stroke-miterlimit:10;" x1="363.168" y1="194.121" x2="363.168" y2="194.121"/>
	
		<line style="fill:none;stroke:#000000;stroke-width:15;stroke-linecap:round;stroke-linejoin:round;stroke-miterlimit:10;" x1="256" y1="132.231" x2="256" y2="132.231"/>
	
		<line style="fill:none;stroke:#000000;stroke-width:15;stroke-linecap:round;stroke-linejoin:round;stroke-miterlimit:10;" x1="256" y1="256" x2="256" y2="256"/>
	
		<line style="fill:none;stroke:#000000;stroke-width:15;stroke-linecap:round;stroke-linejoin:round;stroke-miterlimit:10;" x1="148.822" y1="194.121" x2="148.822" y2="194.121"/>
	
		<line style="fill:none;stroke:#000000;stroke-width:15;stroke-linecap:round;stroke-linejoin:round;stroke-miterlimit:10;" x1="148.822" y1="317.879" x2="148.822" y2="317.879"/>
	
		<line style="fill:none;stroke:#000000;stroke-width:15;stroke-linecap:round;stroke-linejoin:round;stroke-miterlimit:10;" x1="256" y1="379.759" x2="256" y2="379.759"/>
</g>
<g>
</g>
<g>
</g>
<g>
</g>
<g>
</g>
<g>
</g>
<g>
</g>
<g>
</g>
<g>
</g>
<g>
</g>
<g>
</g>
<g>
</g>
<g>
</g>
<g>
</g>
<g>
</g>
<g>
</g>
</svg>