<svg version="1.1" id="Capa_1" xmlns="http://www.w3.org/2000/svg" xmlns:xlink="http://www.w3.org/1999/xlink" x="0px" y="0px" viewBox="0 0 512 512" style="enable-background:new 0 0 512 512;" xml:space="preserve">
<g>
	<path style="fill:none;stroke:#000000;stroke-width:15;stroke-linecap:round;stroke-linejoin:round;stroke-miterlimit:10;" d="&#10;&#9;&#9;M342.661,79.03h29.72c23.4,0,42.44,19.04,42.44,42.44v112.66"/>
	<path style="fill:none;stroke:#000000;stroke-width:15;stroke-linecap:round;stroke-linejoin:round;stroke-miterlimit:10;" d="&#10;&#9;&#9;M102.841,234.13V121.47c0-23.4,19.04-42.44,42.44-42.44h29.72"/>
	<path style="fill:none;stroke:#000000;stroke-width:15;stroke-linecap:round;stroke-linejoin:round;stroke-miterlimit:10;" d="&#10;&#9;&#9;M297.868,421.738v-31.279h-78.075v31.279l-55.008,16.745c-4.847,1.475-8.16,5.946-8.16,11.013v42.999&#10;&#9;&#9;c0,6.63,5.375,12.005,12.005,12.005h180.399c6.63,0,12.005-5.375,12.005-12.005v-42.999c0-5.067-3.313-9.538-8.16-11.013&#10;&#9;&#9;L297.868,421.738z"/>
	
		<rect x="209.225" y="222.924" style="fill:none;stroke:#000000;stroke-width:15;stroke-linecap:round;stroke-linejoin:round;stroke-miterlimit:10;" width="99.212" height="94.272"/>
	
		<rect x="227.116" y="117.234" style="fill:none;stroke:#000000;stroke-width:15;stroke-linecap:round;stroke-linejoin:round;stroke-miterlimit:10;" width="63.431" height="30.262"/>
	<path style="fill:none;stroke:#000000;stroke-width:15;stroke-linecap:round;stroke-linejoin:round;stroke-miterlimit:10;" d="&#10;&#9;&#9;M342.659,79.03v28.776c0,5.207-4.221,9.428-9.428,9.428H184.431c-5.207,0-9.428-4.221-9.428-9.428V16.928&#10;&#9;&#9;c0-5.207,4.221-9.428,9.428-9.428h148.801c5.207,0,9.428,4.221,9.428,9.428v26.998"/>
	
		<rect x="230.964" y="5.539" transform="matrix(-1.836970e-16 1 -1 -1.836970e-16 321.198 -196.4641)" style="fill:none;stroke:#000000;stroke-width:15;stroke-linecap:round;stroke-linejoin:round;stroke-miterlimit:10;" width="55.734" height="113.656"/>
	
		<rect x="224.846" y="448.42" style="fill:none;stroke:#000000;stroke-width:15;stroke-linecap:round;stroke-linejoin:round;stroke-miterlimit:10;" width="67.97" height="29.08"/>
	<path style="fill:none;stroke:#000000;stroke-width:15;stroke-linecap:round;stroke-linejoin:round;stroke-miterlimit:10;" d="&#10;&#9;&#9;M129.844,305.991H94.755c-5.799,0-10.5-4.701-10.5-10.5v-50.862c0-5.799,4.701-10.5,10.5-10.5h35.089V305.991z"/>
	<path style="fill:none;stroke:#000000;stroke-width:15;stroke-linecap:round;stroke-linejoin:round;stroke-miterlimit:10;" d="&#10;&#9;&#9;M387.818,305.991h35.089c5.799,0,10.5-4.701,10.5-10.5v-50.862c0-5.799-4.701-10.5-10.5-10.5h-35.089V305.991z"/>
	<path style="fill:none;stroke:#000000;stroke-width:15;stroke-linecap:round;stroke-linejoin:round;stroke-miterlimit:10;" d="&#10;&#9;&#9;M129.841,234.129V377.19c0,8.52,6.91,15.43,15.44,15.43h35.12l13.62,19.78c4,5.8,10.59,9.26,17.63,9.26h8.14"/>
	<path style="fill:none;stroke:#000000;stroke-width:15;stroke-linecap:round;stroke-linejoin:round;stroke-miterlimit:10;" d="&#10;&#9;&#9;M297.871,421.66h8.14c7.04,0,13.63-3.46,17.63-9.26l13.62-19.78h35.12c8.53,0,15.44-6.91,15.44-15.43V162.93&#10;&#9;&#9;c0-8.52-6.91-15.43-15.44-15.43h-227.1c-8.53,0-15.44,6.91-15.44,15.43v36.129"/>
	
		<line style="fill:none;stroke:#000000;stroke-width:15;stroke-linecap:round;stroke-linejoin:round;stroke-miterlimit:10;" x1="21.052" y1="270.06" x2="490.948" y2="270.06"/>
	
		<line style="fill:none;stroke:#000000;stroke-width:15;stroke-linecap:round;stroke-linejoin:round;stroke-miterlimit:10;" x1="258.831" y1="254.423" x2="258.831" y2="285.698"/>
	<g>
		
			<line style="fill:none;stroke:#000000;stroke-width:15;stroke-linecap:round;stroke-linejoin:round;stroke-miterlimit:10;" x1="156.844" y1="339.805" x2="156.844" y2="339.805"/>
		
			<line style="fill:none;stroke:#000000;stroke-width:15;stroke-linecap:round;stroke-linejoin:round;stroke-miterlimit:10;" x1="181.989" y1="339.805" x2="181.989" y2="339.805"/>
		
			<line style="fill:none;stroke:#000000;stroke-width:15;stroke-linecap:round;stroke-linejoin:round;stroke-miterlimit:10;" x1="156.844" y1="365.625" x2="156.844" y2="365.625"/>
		
			<line style="fill:none;stroke:#000000;stroke-width:15;stroke-linecap:round;stroke-linejoin:round;stroke-miterlimit:10;" x1="181.989" y1="365.625" x2="181.989" y2="365.625"/>
	</g>
	<g>
		
			<line style="fill:none;stroke:#000000;stroke-width:15;stroke-linecap:round;stroke-linejoin:round;stroke-miterlimit:10;" x1="335.891" y1="339.805" x2="335.891" y2="339.805"/>
		
			<line style="fill:none;stroke:#000000;stroke-width:15;stroke-linecap:round;stroke-linejoin:round;stroke-miterlimit:10;" x1="361.036" y1="339.805" x2="361.036" y2="339.805"/>
		
			<line style="fill:none;stroke:#000000;stroke-width:15;stroke-linecap:round;stroke-linejoin:round;stroke-miterlimit:10;" x1="335.891" y1="365.625" x2="335.891" y2="365.625"/>
		
			<line style="fill:none;stroke:#000000;stroke-width:15;stroke-linecap:round;stroke-linejoin:round;stroke-miterlimit:10;" x1="361.036" y1="365.625" x2="361.036" y2="365.625"/>
	</g>
</g>
<g>
</g>
<g>
</g>
<g>
</g>
<g>
</g>
<g>
</g>
<g>
</g>
<g>
</g>
<g>
</g>
<g>
</g>
<g>
</g>
<g>
</g>
<g>
</g>
<g>
</g>
<g>
</g>
<g>
</g>
</svg>