<svg enable-background="new 0 0 512 512" viewBox="0 0 512 512" xmlns="http://www.w3.org/2000/svg"><g id="_x33_5_Network_Switch"><g><path d="m56.639 45.494h-18.454c-3.309 0-5.99 2.681-5.99 5.99s2.681 5.99 5.99 5.99h18.454c3.309 0 5.99-2.681 5.99-5.99 0-3.308-2.681-5.99-5.99-5.99z"/><path d="m56.639 83.723h-18.454c-3.309 0-5.99 2.681-5.99 5.99s2.681 5.99 5.99 5.99h18.454c3.309 0 5.99-2.681 5.99-5.99s-2.681-5.99-5.99-5.99z"/><path d="m56.639 121.949h-18.454c-3.309 0-5.99 2.681-5.99 5.99s2.681 5.99 5.99 5.99h18.454c3.309 0 5.99-2.681 5.99-5.99 0-3.308-2.681-5.99-5.99-5.99z"/><path d="m471.258 168.375c19.156 0 34.742-15.586 34.742-34.742v-87.839c0-19.156-15.586-34.742-34.742-34.742-53.933 0-366.27 0-430.516 0-19.156 0-34.742 15.586-34.742 34.742v87.838c0 19.156 15.586 34.742 34.742 34.742h104.044v24.955c0 31.097 25.301 56.395 56.398 56.395 24.491 0 44.418 19.926 44.418 44.418v49.483c-70.67 0-124.528 0-204.859 0-19.157 0-34.743 15.586-34.743 34.743v87.838c0 19.156 15.586 34.742 34.742 34.742h430.516c19.156 0 34.742-15.586 34.742-34.742v-14.184c0-3.309-2.681-5.99-5.99-5.99s-5.99 2.681-5.99 5.99v14.184c0 12.551-10.211 22.762-22.762 22.762h-36.083v-133.363h36.083c12.551 0 22.762 10.211 22.762 22.762v20.032c0 3.309 2.681 5.99 5.99 5.99s5.99-2.681 5.99-5.99v-20.032c0-19.156-15.586-34.742-34.742-34.742-36.283 0-60.904 0-104.044 0v-98.795c0-31.097-25.301-56.398-56.398-56.398h-4.408c-15.498 0-29.149-7.992-37.099-20.057zm0-145.343c12.551 0 22.762 10.211 22.762 22.762v87.838c0 12.551-10.211 22.762-22.762 22.762h-36.104v-133.362zm-430.516 133.363c-12.551 0-22.762-10.211-22.762-22.762v-87.839c0-12.551 10.211-22.762 22.762-22.762h36.104v133.363zm0 332.573c-12.551 0-22.762-10.211-22.762-22.762v-87.838c0-12.551 10.211-22.762 22.762-22.762h36.104v133.363h-36.104zm382.453-133.363v133.363h-334.369v-133.363h156.775v21.997h-2.852c-7.558 0-13.705 6.147-13.705 13.705v8.29c0 .95-.774 1.724-1.724 1.724-7.558 0-13.707 6.147-13.707 13.705v33.694c0 10.064 8.19 18.253 18.253 18.253h48.264c10.064 0 18.253-8.19 18.253-18.253v-33.694c0-7.558-6.147-13.705-13.705-13.705-.95 0-1.724-.775-1.724-1.724v-8.29c0-7.558-6.147-13.705-13.705-13.705h-11.669v-21.997h97.652v21.997h-7.261c-7.558 0-13.705 6.147-13.705 13.705v8.29c0 .95-.774 1.724-1.727 1.724-7.558 0-13.705 6.147-13.705 13.705v33.694c0 10.064 8.19 18.253 18.253 18.253h48.264c10.064 0 18.253-8.19 18.253-18.253v-33.694c0-7.558-6.147-13.705-13.705-13.705-.95 0-1.724-.775-1.724-1.724v-8.29c0-7.558-6.149-13.705-13.707-13.705h-7.258v-21.997zm-138.515 57.697c.95 0 1.724.775 1.724 1.724v33.694c0 3.458-2.815 6.273-6.273 6.273h-48.264c-3.458 0-6.273-2.815-6.273-6.273v-33.694c0-.95.774-1.724 1.727-1.724 7.558 0 13.705-6.147 13.705-13.705v-8.29c0-.95.774-1.724 1.724-1.724h26.501c.95 0 1.724.774 1.724 1.724v8.29c0 7.558 6.147 13.705 13.705 13.705zm105.223 0c.95 0 1.724.775 1.724 1.724v33.694c0 3.458-2.815 6.273-6.273 6.273h-48.264c-3.458 0-6.273-2.815-6.273-6.273v-33.694c0-.95.775-1.724 1.724-1.724 7.558 0 13.707-6.147 13.707-13.705v-8.29c0-.95.774-1.724 1.724-1.724h26.499c.952 0 1.727.774 1.727 1.724v8.29c.001 7.558 6.147 13.705 13.705 13.705zm-83.495-212.89h4.408c24.491 0 44.418 19.926 44.418 44.418v98.796h-97.652v-49.483c0-31.097-25.301-56.398-56.398-56.398-24.491 0-44.418-19.924-44.418-44.415v-24.955h98.855c9.113 18.917 28.422 32.037 50.787 32.037zm-44.418-56.398v-9.617h18.141c10.064 0 18.253-8.19 18.253-18.253v-33.691c0-7.558-6.147-13.705-13.705-13.705-.95 0-1.724-.774-1.724-1.727v-8.29c0-7.558-6.147-13.705-13.705-13.705h-26.501c-7.558 0-13.705 6.147-13.705 13.705v8.29c0 .952-.774 1.727-1.724 1.727-7.558 0-13.707 6.147-13.707 13.705v33.692c0 10.064 8.19 18.253 18.253 18.253h18.143v9.617c0 4.257.514 8.39 1.413 12.38h-94.656v-21.997h18.143c10.064 0 18.253-8.19 18.253-18.253v-33.692c0-7.558-6.149-13.705-13.707-13.705-.95 0-1.724-.774-1.724-1.727v-8.29c0-7.558-6.147-13.705-13.705-13.705h-26.501c-7.558 0-13.705 6.147-13.705 13.705v8.29c0 .952-.774 1.727-1.724 1.727-7.558 0-13.707 6.147-13.707 13.705v33.692c0 10.064 8.19 18.253 18.253 18.253h18.143v21.997h-55.96v-133.363h334.347v133.363h-159.391c-1.145-3.935-1.791-8.081-1.791-12.381zm22.69-63.286c.95 0 1.724.774 1.724 1.724v33.692c0 3.458-2.815 6.273-6.273 6.273h-48.264c-3.458 0-6.273-2.815-6.273-6.273v-33.691c0-.95.774-1.724 1.727-1.724 7.558 0 13.705-6.149 13.705-13.707v-8.29c0-.95.774-1.724 1.724-1.724h26.501c.95 0 1.724.774 1.724 1.724v8.29c0 7.557 6.147 13.706 13.705 13.706zm-105.224 0c.952 0 1.727.774 1.727 1.724v33.692c0 3.458-2.815 6.273-6.273 6.273h-48.267c-3.458 0-6.273-2.815-6.273-6.273v-33.691c0-.95.774-1.724 1.727-1.724 7.558 0 13.705-6.149 13.705-13.707v-8.29c0-.95.774-1.724 1.724-1.724h26.501c.95 0 1.724.774 1.724 1.724v8.29c.001 7.557 6.147 13.706 13.705 13.706z"/><path d="m455.361 57.475h18.452c3.309 0 5.99-2.681 5.99-5.99s-2.681-5.99-5.99-5.99h-18.452c-3.309 0-5.99 2.681-5.99 5.99 0 3.308 2.681 5.99 5.99 5.99z"/><path d="m455.361 95.703h18.452c3.309 0 5.99-2.681 5.99-5.99s-2.681-5.99-5.99-5.99h-18.452c-3.309 0-5.99 2.681-5.99 5.99s2.681 5.99 5.99 5.99z"/><path d="m455.361 133.93h18.452c3.309 0 5.99-2.681 5.99-5.99s-2.681-5.99-5.99-5.99h-18.452c-3.309 0-5.99 2.681-5.99 5.99 0 3.308 2.681 5.99 5.99 5.99z"/><path d="m389.903 68.748c-.95 0-1.724-.774-1.724-1.727v-8.29c0-7.558-6.149-13.705-13.707-13.705h-26.499c-7.558 0-13.705 6.147-13.705 13.705v8.29c0 .952-.774 1.727-1.727 1.727-7.558 0-13.705 6.147-13.705 13.705v33.692c0 10.064 8.19 18.253 18.253 18.253h48.264c10.064 0 18.253-8.19 18.253-18.253v-33.692c.002-7.558-6.145-13.705-13.703-13.705zm1.725 47.396c0 3.458-2.815 6.273-6.273 6.273h-48.265c-3.458 0-6.273-2.815-6.273-6.273v-33.691c0-.95.775-1.724 1.724-1.724 7.558 0 13.707-6.149 13.707-13.707v-8.29c0-.95.774-1.724 1.724-1.724h26.499c.952 0 1.727.774 1.727 1.724v8.29c0 7.558 6.147 13.707 13.705 13.707.95 0 1.724.774 1.724 1.724v33.691z"/><path d="m56.639 378.07h-18.454c-3.309 0-5.99 2.681-5.99 5.99s2.681 5.99 5.99 5.99h18.454c3.309 0 5.99-2.681 5.99-5.99s-2.681-5.99-5.99-5.99z"/><path d="m56.639 416.297h-18.454c-3.309 0-5.99 2.681-5.99 5.99s2.681 5.99 5.99 5.99h18.454c3.309 0 5.99-2.681 5.99-5.99s-2.681-5.99-5.99-5.99z"/><path d="m56.639 454.525h-18.454c-3.309 0-5.99 2.681-5.99 5.99s2.681 5.99 5.99 5.99h18.454c3.309 0 5.99-2.681 5.99-5.99s-2.681-5.99-5.99-5.99z"/><path d="m473.813 378.07h-18.452c-3.309 0-5.99 2.681-5.99 5.99s2.681 5.99 5.99 5.99h18.452c3.309 0 5.99-2.681 5.99-5.99s-2.682-5.99-5.99-5.99z"/><path d="m473.813 416.297h-18.452c-3.309 0-5.99 2.681-5.99 5.99s2.681 5.99 5.99 5.99h18.452c3.309 0 5.99-2.681 5.99-5.99s-2.682-5.99-5.99-5.99z"/><path d="m473.813 454.525h-18.452c-3.309 0-5.99 2.681-5.99 5.99s2.681 5.99 5.99 5.99h18.452c3.309 0 5.99-2.681 5.99-5.99s-2.682-5.99-5.99-5.99z"/><path d="m179.456 401.322c-.95 0-1.724-.775-1.724-1.724v-8.29c0-7.558-6.147-13.705-13.705-13.705h-26.501c-7.558 0-13.705 6.147-13.705 13.705v8.29c0 .95-.774 1.724-1.724 1.724-7.558 0-13.707 6.147-13.707 13.705v33.694c0 10.064 8.19 18.253 18.253 18.253h48.267c10.064 0 18.253-8.19 18.253-18.253v-33.694c0-7.558-6.149-13.705-13.707-13.705zm1.727 47.398c0 3.458-2.815 6.273-6.273 6.273h-48.267c-3.458 0-6.273-2.815-6.273-6.273v-33.694c0-.95.774-1.724 1.727-1.724 7.558 0 13.705-6.147 13.705-13.705v-8.29c0-.95.774-1.724 1.724-1.724h26.501c.95 0 1.724.774 1.724 1.724v8.29c0 7.558 6.147 13.705 13.705 13.705.952 0 1.727.775 1.727 1.724z"/></g></g><g id="Layer_1"/></svg>