<svg version="1.1" id="Capa_1" xmlns="http://www.w3.org/2000/svg" xmlns:xlink="http://www.w3.org/1999/xlink" x="0px" y="0px" viewBox="0 0 512 512" style="enable-background:new 0 0 512 512;" xml:space="preserve">
<g>
	<path style="fill:none;stroke:#000000;stroke-width:15;stroke-linecap:round;stroke-linejoin:round;stroke-miterlimit:10;" d="&#10;&#9;&#9;M63.82,245.507c43.92-7.62,89.32-11.07,131.66-0.81c30.27,6.23,61.23,7.97,91.91,5.22"/>
	
		<line style="fill:none;stroke:#000000;stroke-width:15;stroke-linecap:round;stroke-linejoin:round;stroke-miterlimit:10;" x1="504.5" y1="504.497" x2="7.5" y2="504.497"/>
	<path style="fill:none;stroke:#000000;stroke-width:15;stroke-linecap:round;stroke-linejoin:round;stroke-miterlimit:10;" d="&#10;&#9;&#9;M345.52,241.617c53.24-5.52,107.34,1.61,158.98,15.46"/>
	<g>
		<path style="fill:none;stroke:#000000;stroke-width:15;stroke-linecap:round;stroke-linejoin:round;stroke-miterlimit:10;" d="&#10;&#9;&#9;&#9;M7.5,257.077c24.444,1.867,47.998,9.361,88.17,43.301"/>
		<path style="fill:none;stroke:#000000;stroke-width:15;stroke-linecap:round;stroke-linejoin:round;stroke-miterlimit:10;" d="&#10;&#9;&#9;&#9;M504.5,407.387H282.91c-16.562-0.239-31.334-1.905-44.656-4.726c0,0-1.3-0.295-3.187-0.743"/>
		<path style="fill:none;stroke:#000000;stroke-width:15;stroke-linecap:round;stroke-linejoin:round;stroke-miterlimit:10;" d="&#10;&#9;&#9;&#9;M209.443,363.771c21.685,11.287,45.901,17.807,73.467,16.616H504.5"/>
		<path style="fill:none;stroke:#000000;stroke-width:15;stroke-linecap:round;stroke-linejoin:round;stroke-miterlimit:10;" d="&#10;&#9;&#9;&#9;M7.5,229.977c29.648,1.657,60.517,9.829,114.8,57.861"/>
	</g>
	<g>
		<g>
			<path style="fill:none;stroke:#000000;stroke-width:15;stroke-linecap:round;stroke-linejoin:round;stroke-miterlimit:10;" d="&#10;&#9;&#9;&#9;&#9;M207.875,359.524c0,30.046-18.478,55.773-44.69,66.436c-8.332,3.391-17.443,5.256-26.996,5.256&#10;&#9;&#9;&#9;&#9;c-9.553,0-18.669-1.866-27.002-5.256c-26.207-10.667-44.69-36.395-44.69-66.436c0-39.594,32.098-71.687,71.692-71.687&#10;&#9;&#9;&#9;&#9;S207.875,319.931,207.875,359.524z"/>
			<path style="fill:none;stroke:#000000;stroke-width:15;stroke-linecap:round;stroke-linejoin:round;stroke-miterlimit:10;" d="&#10;&#9;&#9;&#9;&#9;M163.184,388.983v36.977c-8.332,3.391-17.443,5.256-26.996,5.256c-9.553,0-18.669-1.866-27.002-5.256v-36.977&#10;&#9;&#9;&#9;&#9;c0-3.614,2.932-6.547,6.547-6.547h40.905C160.252,382.437,163.184,385.369,163.184,388.983z"/>
			<path style="fill:none;stroke:#000000;stroke-width:15;stroke-linecap:round;stroke-linejoin:round;stroke-miterlimit:10;" d="&#10;&#9;&#9;&#9;&#9;M140.923,348.406h-9.473c-6.782,0-12.28,5.498-12.28,12.28v21.753h34.033v-21.753&#10;&#9;&#9;&#9;&#9;C153.203,353.904,147.705,348.406,140.923,348.406z"/>
		</g>
		
			<line style="fill:none;stroke:#000000;stroke-width:15;stroke-linecap:round;stroke-linejoin:round;stroke-miterlimit:10;" x1="136.185" y1="348.406" x2="136.185" y2="317.791"/>
	</g>
	<g>
		<path style="fill:none;stroke:#000000;stroke-width:15;stroke-linecap:round;stroke-linejoin:round;stroke-miterlimit:10;" d="&#10;&#9;&#9;&#9;M185.104,95.675c-1.521,12.699,2.4,26.428,14.675,37.239c-16.01,26.567,1.226,90.328,66.944,68.903&#10;&#9;&#9;&#9;c4.575,3.958,8.844,14.47,23.854,20.398"/>
		<path style="fill:none;stroke:#000000;stroke-width:15;stroke-linecap:round;stroke-linejoin:round;stroke-miterlimit:10;" d="&#10;&#9;&#9;&#9;M342.334,222.218c15.017-5.927,19.288-16.443,23.863-20.401c65.718,21.425,82.955-42.336,66.944-68.903&#10;&#9;&#9;&#9;c34.358-30.261,3.27-83.379-29.438-72.809c3.288-36.157-32.688-44.495-49.53-27.91c-6.064-16.993-21.307-24.948-37.714-24.686&#10;&#9;&#9;&#9;c-16.407-0.261-31.649,7.693-37.714,24.686c-16.842-16.585-52.818-8.247-49.53,27.91c-9.771-3.158-19.398-0.632-27.178,5.271"/>
	</g>
	<path style="fill:none;stroke:#000000;stroke-width:15;stroke-linecap:round;stroke-linejoin:round;stroke-miterlimit:10;" d="&#10;&#9;&#9;M374.46,325.486l-28.94-35.142l-4.65-99.426l26.008-27.767c1.523-1.626,1.613-4.125,0.211-5.856l-7.548-9.324&#10;&#9;&#9;c-1.471-1.817-4.094-2.19-6.013-0.856l-25.046,17.407l-3.055-32.076c-0.218-2.289-2.141-4.038-4.441-4.038h-9.06&#10;&#9;&#9;c-2.3,0-4.223,1.748-4.441,4.038l-3.055,32.076l-25.046-17.407c-1.919-1.334-4.542-0.96-6.013,0.856l-7.548,9.324&#10;&#9;&#9;c-1.401,1.731-1.311,4.231,0.211,5.856l26.008,27.767l-4.65,99.426l-28.941,35.142c-2.364,2.87,0.488,7.048,4.022,5.893&#10;&#9;&#9;l38.828-12.697l11.707,29.177c1.247,3.109,5.648,3.109,6.896,0l11.707-29.177l38.828,12.697&#10;&#9;&#9;C373.972,332.535,376.824,328.357,374.46,325.486z"/>
</g>
<g>
</g>
<g>
</g>
<g>
</g>
<g>
</g>
<g>
</g>
<g>
</g>
<g>
</g>
<g>
</g>
<g>
</g>
<g>
</g>
<g>
</g>
<g>
</g>
<g>
</g>
<g>
</g>
<g>
</g>
</svg>